<svg xmlns="http://www.w3.org/2000/svg" xmlns:xlink="http://www.w3.org/1999/xlink" version="1.1" width="256" height="256" viewBox="0 0 256 256" xml:space="preserve">

<defs>
</defs>
<g style="stroke: none; stroke-width: 0; stroke-dasharray: none; stroke-linecap: butt; stroke-linejoin: miter; stroke-miterlimit: 10; fill: none; fill-rule: nonzero; opacity: 1;" transform="translate(1.4065934065934016 1.4065934065934016) scale(2.81 2.81)" >
	<rect x="1" y="55.11" rx="0" ry="0" width="38.11" height="21.36" style="stroke: none; stroke-width: 1; stroke-dasharray: none; stroke-linecap: butt; stroke-linejoin: miter; stroke-miterlimit: 10; fill: rgb(234,176,129); fill-rule: nonzero; opacity: 1;" transform=" matrix(1 0 0 1 0 0) "/>
	<rect x="39.11" y="45.48" rx="0" ry="0" width="49.89" height="31" style="stroke: none; stroke-width: 1; stroke-dasharray: none; stroke-linecap: butt; stroke-linejoin: miter; stroke-miterlimit: 10; fill: rgb(234,176,129); fill-rule: nonzero; opacity: 1;" transform=" matrix(1 0 0 1 0 0) "/>
	<rect x="39.11" y="13.53" rx="0" ry="0" width="49.89" height="31.95" style="stroke: none; stroke-width: 1; stroke-dasharray: none; stroke-linecap: butt; stroke-linejoin: miter; stroke-miterlimit: 10; fill: rgb(234,176,129); fill-rule: nonzero; opacity: 1;" transform=" matrix(1 0 0 1 0 0) "/>
	<rect x="1" y="29.5" rx="0" ry="0" width="38.11" height="25.61" style="stroke: none; stroke-width: 1; stroke-dasharray: none; stroke-linecap: butt; stroke-linejoin: miter; stroke-miterlimit: 10; fill: rgb(234,176,129); fill-rule: nonzero; opacity: 1;" transform=" matrix(1 0 0 1 0 0) "/>
	<path d="M 39.108 77.476 H 1 c -0.552 0 -1 -0.447 -1 -1 V 55.11 c 0 -0.553 0.448 -1 1 -1 h 38.108 c 0.552 0 1 0.447 1 1 v 21.365 C 40.108 77.028 39.66 77.476 39.108 77.476 z M 2 75.476 h 36.108 V 56.11 H 2 V 75.476 z" style="stroke: none; stroke-width: 1; stroke-dasharray: none; stroke-linecap: butt; stroke-linejoin: miter; stroke-miterlimit: 10; fill: rgb(0,0,0); fill-rule: nonzero; opacity: 1;" transform=" matrix(1 0 0 1 0 0) " stroke-linecap="round" />
	<path d="M 89 77.476 H 39.108 c -0.552 0 -1 -0.447 -1 -1 V 45.475 c 0 -0.552 0.448 -1 1 -1 H 89 c 0.553 0 1 0.448 1 1 v 31.001 C 90 77.028 89.553 77.476 89 77.476 z M 40.108 75.476 H 88 V 46.475 H 40.108 V 75.476 z" style="stroke: none; stroke-width: 1; stroke-dasharray: none; stroke-linecap: butt; stroke-linejoin: miter; stroke-miterlimit: 10; fill: rgb(0,0,0); fill-rule: nonzero; opacity: 1;" transform=" matrix(1 0 0 1 0 0) " stroke-linecap="round" />
	<path d="M 89 46.475 H 39.108 c -0.552 0 -1 -0.447 -1 -1 v -31.95 c 0 -0.552 0.448 -1 1 -1 H 89 c 0.553 0 1 0.448 1 1 v 31.95 C 90 46.027 89.553 46.475 89 46.475 z M 40.108 44.475 H 88 v -29.95 H 40.108 V 44.475 z" style="stroke: none; stroke-width: 1; stroke-dasharray: none; stroke-linecap: butt; stroke-linejoin: miter; stroke-miterlimit: 10; fill: rgb(0,0,0); fill-rule: nonzero; opacity: 1;" transform=" matrix(1 0 0 1 0 0) " stroke-linecap="round" />
	<path d="M 39.108 56.11 H 1 c -0.552 0 -1 -0.447 -1 -1 V 29.5 c 0 -0.552 0.448 -1 1 -1 h 38.108 c 0.552 0 1 0.448 1 1 V 55.11 C 40.108 55.663 39.66 56.11 39.108 56.11 z M 2 54.11 h 36.108 V 30.5 H 2 V 54.11 z" style="stroke: none; stroke-width: 1; stroke-dasharray: none; stroke-linecap: butt; stroke-linejoin: miter; stroke-miterlimit: 10; fill: rgb(0,0,0); fill-rule: nonzero; opacity: 1;" transform=" matrix(1 0 0 1 0 0) " stroke-linecap="round" />
	<polygon points="27,40.51 20.05,38.33 13.1,40.51 13.1,29.5 27,29.5 " style="stroke: none; stroke-width: 1; stroke-dasharray: none; stroke-linecap: butt; stroke-linejoin: miter; stroke-miterlimit: 10; fill: rgb(229,76,76); fill-rule: nonzero; opacity: 1;" transform="  matrix(1 0 0 1 0 0) "/>
	<polygon points="27,66.12 20.05,63.94 13.1,66.12 13.1,55.11 27,55.11 " style="stroke: none; stroke-width: 1; stroke-dasharray: none; stroke-linecap: butt; stroke-linejoin: miter; stroke-miterlimit: 10; fill: rgb(229,76,76); fill-rule: nonzero; opacity: 1;" transform="  matrix(1 0 0 1 0 0) "/>
	<polygon points="71,24.54 64.05,22.36 57.1,24.54 57.1,13.53 71,13.53 " style="stroke: none; stroke-width: 1; stroke-dasharray: none; stroke-linecap: butt; stroke-linejoin: miter; stroke-miterlimit: 10; fill: rgb(229,76,76); fill-rule: nonzero; opacity: 1;" transform="  matrix(1 0 0 1 0 0) "/>
	<polygon points="71,56.48 64.05,54.31 57.1,56.48 57.1,45.48 71,45.48 " style="stroke: none; stroke-width: 1; stroke-dasharray: none; stroke-linecap: butt; stroke-linejoin: miter; stroke-miterlimit: 10; fill: rgb(229,76,76); fill-rule: nonzero; opacity: 1;" transform="  matrix(1 0 0 1 0 0) "/>
	<path d="M 27.005 41.51 c -0.1 0 -0.201 -0.015 -0.299 -0.046 l -6.652 -2.083 l -6.652 2.083 c -0.304 0.095 -0.635 0.04 -0.891 -0.148 c -0.256 -0.188 -0.408 -0.487 -0.408 -0.806 V 29.5 c 0 -0.552 0.448 -1 1 -1 h 13.902 c 0.552 0 1 0.448 1 1 V 40.51 c 0 0.318 -0.151 0.618 -0.408 0.806 C 27.423 41.444 27.215 41.51 27.005 41.51 z M 20.054 37.333 c 0.101 0 0.202 0.015 0.299 0.046 l 5.652 1.77 V 30.5 H 14.103 v 8.65 l 5.652 -1.77 C 19.852 37.349 19.953 37.333 20.054 37.333 z" style="stroke: none; stroke-width: 1; stroke-dasharray: none; stroke-linecap: butt; stroke-linejoin: miter; stroke-miterlimit: 10; fill: rgb(0,0,0); fill-rule: nonzero; opacity: 1;" transform=" matrix(1 0 0 1 0 0) " stroke-linecap="round" />
	<path d="M 13.103 67.121 c -0.21 0 -0.418 -0.066 -0.592 -0.194 c -0.256 -0.188 -0.408 -0.487 -0.408 -0.806 V 55.11 c 0 -0.553 0.448 -1 1 -1 h 13.902 c 0.552 0 1 0.447 1 1 v 11.011 c 0 0.318 -0.151 0.617 -0.408 0.806 c -0.257 0.188 -0.587 0.244 -0.891 0.148 l -6.652 -2.083 l -6.652 2.083 C 13.304 67.106 13.203 67.121 13.103 67.121 z M 20.054 62.944 c 0.101 0 0.202 0.016 0.299 0.046 l 5.652 1.77 V 56.11 H 14.103 v 8.649 l 5.652 -1.77 C 19.852 62.96 19.953 62.944 20.054 62.944 z" style="stroke: none; stroke-width: 1; stroke-dasharray: none; stroke-linecap: butt; stroke-linejoin: miter; stroke-miterlimit: 10; fill: rgb(0,0,0); fill-rule: nonzero; opacity: 1;" transform=" matrix(1 0 0 1 0 0) " stroke-linecap="round" />
	<path d="M 71.005 25.535 c -0.101 0 -0.201 -0.015 -0.299 -0.046 l -6.652 -2.083 l -6.651 2.083 c -0.301 0.095 -0.634 0.041 -0.891 -0.148 c -0.257 -0.188 -0.408 -0.487 -0.408 -0.806 V 13.524 c 0 -0.552 0.447 -1 1 -1 h 13.901 c 0.553 0 1 0.448 1 1 v 11.011 c 0 0.318 -0.151 0.618 -0.408 0.806 C 71.423 25.469 71.215 25.535 71.005 25.535 z M 64.054 21.358 c 0.101 0 0.201 0.015 0.299 0.046 l 5.652 1.77 v -8.65 H 58.104 v 8.649 l 5.651 -1.77 C 63.853 21.374 63.953 21.358 64.054 21.358 z" style="stroke: none; stroke-width: 1; stroke-dasharray: none; stroke-linecap: butt; stroke-linejoin: miter; stroke-miterlimit: 10; fill: rgb(0,0,0); fill-rule: nonzero; opacity: 1;" transform=" matrix(1 0 0 1 0 0) " stroke-linecap="round" />
	<path d="M 57.104 57.485 c -0.21 0 -0.418 -0.066 -0.592 -0.194 c -0.257 -0.188 -0.408 -0.487 -0.408 -0.806 V 45.475 c 0 -0.552 0.447 -1 1 -1 h 13.901 c 0.553 0 1 0.448 1 1 v 11.011 c 0 0.318 -0.151 0.617 -0.408 0.806 c -0.257 0.189 -0.588 0.245 -0.891 0.148 l -6.652 -2.083 l -6.651 2.083 C 57.305 57.471 57.204 57.485 57.104 57.485 z M 64.054 53.309 c 0.101 0 0.201 0.016 0.299 0.046 l 5.652 1.77 v -8.649 H 58.104 v 8.649 l 5.651 -1.77 C 63.853 53.324 63.953 53.309 64.054 53.309 z" style="stroke: none; stroke-width: 1; stroke-dasharray: none; stroke-linecap: butt; stroke-linejoin: miter; stroke-miterlimit: 10; fill: rgb(0,0,0); fill-rule: nonzero; opacity: 1;" transform=" matrix(1 0 0 1 0 0) " stroke-linecap="round" />
</g>
</svg>